<?xml version="1.0" standalone="no"?>
<!DOCTYPE svg PUBLIC "-//W3C//DTD SVG 20010904//EN"
 "http://www.w3.org/TR/2001/REC-SVG-20010904/DTD/svg10.dtd">
<svg version="1.0" xmlns="http://www.w3.org/2000/svg"
 width="512.000000pt" height="512.000000pt" viewBox="0 0 512.000000 512.000000"
 preserveAspectRatio="xMidYMid meet">

<g transform="translate(0.000000,512.000000) scale(0.100000,-0.100000)"
fill="#000000" stroke="none">
<path d="M2560 4683 c-15 -20 -20 -35 -15 -53 4 -14 9 -71 12 -127 4 -87 2
-113 -17 -175 -20 -67 -69 -166 -105 -212 -14 -18 -16 -19 -34 -2 -18 17 -18
20 26 128 24 61 43 122 41 136 -2 14 -15 34 -30 45 -23 17 -31 18 -57 7 -25
-10 -36 -27 -67 -106 -21 -52 -40 -94 -43 -94 -3 1 -60 48 -126 107 -123 108
-163 133 -213 133 -23 0 -32 6 -42 30 -15 37 -85 102 -140 130 -48 24 -122 36
-174 26 -80 -15 -128 -95 -106 -177 23 -84 143 -179 247 -195 35 -5 43 -11 48
-34 9 -41 44 -75 306 -304 235 -204 236 -205 243 -252 10 -75 9 -76 -30 -49
-38 26 -94 45 -130 45 -18 0 -22 8 -27 52 -25 207 -311 248 -392 56 -8 -21
-15 -52 -15 -70 0 -33 -1 -34 -61 -45 -100 -19 -164 -85 -176 -181 -6 -55 18
-124 60 -166 l24 -24 -41 -12 c-86 -25 -146 -102 -146 -188 l0 -42 -43 0
c-134 0 -232 -146 -183 -274 30 -78 114 -136 199 -136 24 0 27 -3 27 -35 0
-85 63 -167 148 -191 60 -18 97 -13 161 22 33 18 42 20 37 8 -3 -9 -6 -29 -6
-45 0 -27 -3 -29 -37 -29 -107 -1 -203 -101 -203 -213 0 -96 103 -196 203
-197 36 0 37 -1 37 -35 0 -101 99 -204 195 -205 113 0 214 95 215 203 0 35 2
37 33 37 17 0 42 3 54 6 20 6 22 3 21 -58 0 -37 38 -274 91 -574 50 -281 91
-516 91 -523 0 -8 -170 -11 -639 -11 -392 0 -659 -4 -692 -10 -72 -14 -167
-60 -217 -105 -86 -77 -130 -227 -82 -275 45 -45 103 -13 114 63 10 65 53 119
123 153 l58 29 1405 3 c1279 2 1410 1 1457 -14 88 -28 163 -109 163 -177 0
-13 9 -36 21 -51 28 -36 70 -35 99 2 59 74 -42 261 -178 331 -95 48 -130 51
-724 51 -307 0 -558 1 -558 3 0 1 -22 128 -50 282 -27 154 -46 283 -42 287 12
11 396 228 404 228 4 0 8 -17 8 -37 0 -51 36 -111 88 -148 38 -26 52 -30 112
-30 60 0 74 4 111 30 54 38 82 86 89 150 l5 50 50 6 c115 14 185 91 185 202 0
108 -76 190 -188 204 l-52 6 0 42 c0 140 -172 239 -293 167 -21 -12 -40 -22
-43 -22 -2 0 -4 18 -4 40 0 40 0 40 38 40 55 0 134 43 168 91 40 59 45 146 12
209 -34 63 -93 102 -162 108 l-54 4 -4 54 c-9 108 -90 179 -203 179 -105 0
-177 -64 -198 -174 -11 -60 -12 -61 -44 -61 -31 0 -32 1 -27 38 3 20 7 46 10
57 2 12 95 87 226 185 121 91 224 166 228 168 4 2 13 -19 20 -47 34 -141 198
-206 314 -124 49 35 86 102 86 158 l0 43 55 4 c104 9 185 96 185 200 0 112
-98 208 -212 208 -26 0 -28 3 -28 40 0 57 -20 99 -68 142 -68 61 -148 71 -232
28 -60 -30 -96 -86 -107 -165 -5 -41 -8 -45 -33 -45 -38 0 -90 -19 -128 -47
-91 -68 -99 -214 -16 -303 l24 -26 -143 -106 -142 -107 -3 37 c-1 20 -11 135
-22 254 -11 119 -20 226 -20 237 0 30 448 413 473 405 38 -12 146 -4 195 14
100 38 152 99 152 179 0 101 -110 165 -245 143 -27 -4 -51 -7 -53 -5 -1 1 9
26 23 56 73 158 -13 307 -155 269 -56 -15 -132 -87 -167 -158 -27 -56 -37
-143 -20 -188 6 -16 -18 -54 -121 -192 l-129 -171 -48 49 -49 49 31 43 c43 61
87 152 112 233 43 135 37 339 -11 400 -27 34 -70 33 -98 -2z m-853 -185 c18
-11 42 -31 54 -46 19 -24 19 -27 4 -30 -38 -8 -87 11 -126 48 -23 22 -38 44
-34 50 9 15 60 4 102 -22z m1403 -30 c-1 -38 -35 -102 -71 -132 l-34 -29 -3
31 c-4 35 19 84 56 125 31 33 52 35 52 5z m-890 -378 c151 -132 278 -250 283
-262 4 -13 22 -187 40 -388 l32 -366 -27 -224 c-32 -270 -30 -250 -74 -631
l-35 -306 96 -540 c52 -297 95 -543 95 -547 0 -3 -16 -6 -35 -6 -19 0 -35 3
-35 8 0 4 -43 249 -95 545 l-95 538 68 582 69 582 -32 351 c-18 193 -35 359
-39 370 -3 10 -125 123 -270 249 -146 127 -267 236 -270 243 -9 21 5 42 28 42
14 0 119 -85 296 -240z m813 68 c-4 -13 -8 -39 -8 -58 1 -33 -8 -43 -133 -150
-73 -63 -143 -122 -155 -130 -11 -8 42 69 119 172 109 147 144 187 162 188 20
0 22 -3 15 -22z m311 3 c17 -7 17 -9 -9 -29 -36 -29 -100 -45 -142 -37 -40 7
-42 17 -6 40 48 32 115 43 157 26z m-1374 -391 c16 -16 20 -33 20 -95 0 -67 3
-79 25 -100 21 -22 33 -25 100 -25 86 0 115 -18 115 -69 0 -49 -39 -71 -124
-71 -39 0 -76 -4 -82 -8 -23 -15 -34 -53 -34 -120 0 -77 -17 -104 -65 -104
-48 0 -65 27 -65 107 0 58 -4 78 -21 99 -19 24 -27 26 -93 26 -87 0 -126 22
-126 71 0 51 30 69 114 69 106 0 118 12 125 124 5 71 10 91 26 102 27 20 62
17 85 -6z m1435 -75 c22 -21 25 -33 25 -100 0 -103 12 -115 118 -115 87 0 115
-15 115 -65 0 -47 -26 -63 -113 -66 -107 -5 -120 -18 -120 -114 0 -86 -22
-125 -71 -125 -51 0 -69 30 -69 114 0 106 -12 118 -124 124 -74 4 -89 8 -101
25 -21 30 -19 57 7 84 19 20 31 23 95 23 65 0 77 3 98 25 22 21 25 33 25 96 0
61 4 76 22 96 28 30 63 29 93 -2z m-1055 -362 c0 -16 -26 -17 -35 -3 -4 6 -1
18 6 26 10 12 14 12 20 2 5 -7 9 -19 9 -25z m-630 -63 c0 -5 -2 -10 -4 -10 -3
0 -8 5 -11 10 -3 6 -1 10 4 10 6 0 11 -4 11 -10z m645 -150 c3 -19 -3 -111
-14 -205 -12 -93 -21 -178 -21 -188 0 -14 -29 -3 -150 58 -147 73 -149 75
-156 112 -9 49 -20 71 -56 109 l-29 31 28 7 c15 4 47 18 70 32 47 27 93 106
93 161 l0 33 114 -57 c109 -54 115 -59 121 -93z m-731 28 c11 -15 16 -45 16
-93 0 -101 8 -108 116 -116 75 -5 89 -9 105 -28 25 -30 24 -66 -1 -91 -16 -16
-33 -20 -95 -20 -67 0 -79 -3 -100 -25 -22 -21 -25 -33 -25 -100 0 -82 -18
-115 -63 -115 -51 0 -64 23 -69 116 -6 112 -18 124 -122 124 -87 0 -116 16
-116 64 0 53 28 70 120 75 103 4 113 15 118 119 5 89 19 112 68 112 23 0 38
-7 48 -22z m171 -68 c3 -5 1 -10 -4 -10 -6 0 -11 5 -11 10 0 6 2 10 4 10 3 0
8 -4 11 -10z m1194 -276 c17 -21 21 -41 21 -99 0 -96 13 -109 120 -114 87 -3
113 -19 113 -66 0 -48 -28 -65 -105 -65 -67 0 -105 -11 -120 -34 -4 -6 -8 -43
-8 -82 0 -85 -22 -124 -70 -124 -51 0 -70 32 -70 121 0 72 -2 79 -26 98 -21
17 -41 21 -98 21 -77 0 -87 4 -105 37 -15 29 -14 45 3 68 11 16 31 21 102 26
112 7 124 19 124 125 0 61 4 78 20 94 29 29 74 26 99 -6z m-856 -155 c89 -45
163 -82 164 -83 3 -2 -19 -200 -22 -204 -2 -2 -24 4 -49 12 -26 9 -60 16 -76
16 -28 0 -30 3 -30 38 -1 82 -70 170 -152 192 -55 15 -118 5 -164 -26 l-37
-25 7 23 c3 13 6 33 6 46 0 16 6 22 23 22 38 0 93 19 128 44 19 13 35 25 37
25 1 1 75 -36 165 -80z m-178 -173 c16 -11 21 -31 25 -100 5 -62 11 -91 23
-103 12 -12 41 -18 103 -23 69 -4 89 -9 100 -25 18 -24 18 -55 -1 -82 -13 -18
-27 -21 -99 -24 -112 -5 -120 -13 -124 -122 -5 -94 -18 -117 -67 -117 -49 0
-62 23 -67 117 -4 109 -12 117 -121 121 -94 5 -117 18 -117 67 0 49 23 62 117
67 109 4 117 12 122 124 3 72 6 86 24 99 27 19 58 19 82 1z m745 -156 c26 0
29 -3 35 -48 21 -157 187 -240 310 -156 l35 23 0 -43 0 -43 -52 -6 c-71 -9
-135 -50 -166 -107 -33 -62 -28 -149 12 -210 15 -23 26 -43 24 -45 -8 -8 -251
-145 -257 -145 -4 0 -22 85 -41 189 l-33 188 22 189 c28 247 25 236 57 224 14
-6 38 -10 54 -10z m629 -196 c17 -21 21 -41 21 -99 0 -96 13 -108 122 -115 73
-5 83 -8 101 -32 17 -23 18 -31 8 -57 -16 -37 -53 -51 -134 -51 -86 0 -97 -12
-97 -112 0 -89 -17 -118 -70 -118 -53 0 -70 29 -70 117 0 101 -11 113 -97 113
-82 0 -128 19 -137 56 -5 20 -2 35 12 53 17 23 28 27 100 31 109 7 122 19 122
115 0 86 22 125 70 125 19 0 36 -9 49 -26z"/>
<path d="M1845 3566 c-13 -10 -20 -30 -23 -72 -3 -49 0 -63 18 -86 19 -25 28
-28 85 -28 57 0 66 3 84 26 33 42 26 141 -13 166 -19 13 -131 9 -151 -6z"/>
<path d="M3310 3513 c-40 -16 -50 -36 -50 -100 0 -83 18 -103 94 -103 80 0
106 24 106 100 0 78 -19 101 -86 106 -27 2 -56 1 -64 -3z"/>
<path d="M1501 2944 c-26 -33 -29 -118 -6 -151 19 -28 90 -40 139 -23 42 13
61 59 53 124 -8 57 -34 76 -107 76 -51 0 -61 -3 -79 -26z"/>
<path d="M2870 2610 c-16 -16 -20 -33 -20 -84 0 -58 3 -67 26 -85 19 -15 41
-21 74 -21 33 0 55 6 74 21 23 18 26 27 26 84 0 57 -3 66 -26 84 -37 29 -126
29 -154 1z"/>
<path d="M1846 2267 c-22 -22 -26 -35 -26 -82 0 -78 27 -105 103 -105 82 0
102 20 102 104 0 84 -13 98 -94 104 -54 4 -62 2 -85 -21z"/>
<path d="M3240 1943 c-40 -16 -50 -36 -50 -100 0 -85 17 -103 100 -103 83 0
100 18 100 103 0 51 -4 68 -20 82 -20 18 -102 30 -130 18z"/>
<path d="M4270 2792 c-8 -2 -31 -20 -50 -38 l-36 -34 -34 35 c-40 41 -88 47
-120 15 -29 -29 -25 -55 15 -99 19 -21 35 -42 35 -46 0 -4 -16 -25 -35 -46
-39 -44 -43 -67 -17 -100 29 -35 76 -30 120 14 l36 37 36 -34 c47 -45 71 -51
103 -25 38 29 36 69 -8 117 l-34 39 34 33 c25 25 35 43 35 65 0 43 -43 79 -80
67z"/>
<path d="M909 2036 c-90 -32 -139 -101 -139 -195 0 -190 236 -273 358 -126 91
111 41 277 -97 324 -43 14 -77 13 -122 -3z m111 -148 c40 -43 14 -108 -44
-108 -64 0 -94 55 -56 103 27 34 71 36 100 5z"/>
<path d="M1270 1380 c-11 -11 -20 -33 -20 -50 0 -17 9 -39 20 -50 11 -11 33
-20 50 -20 17 0 39 9 50 20 11 11 20 33 20 50 0 17 -9 39 -20 50 -11 11 -33
20 -50 20 -17 0 -39 -9 -50 -20z"/>
</g>
</svg>
